<?xml version="1.0" encoding="UTF-8" standalone="no"?>
<!-- Created with Inkscape (http://www.inkscape.org/) -->

<svg
   xmlns:dc="http://purl.org/dc/elements/1.1/"
   xmlns:cc="http://creativecommons.org/ns#"
   xmlns:rdf="http://www.w3.org/1999/02/22-rdf-syntax-ns#"
   xmlns:svg="http://www.w3.org/2000/svg"
   xmlns="http://www.w3.org/2000/svg"
   xmlns:sodipodi="http://sodipodi.sourceforge.net/DTD/sodipodi-0.dtd"
   xmlns:inkscape="http://www.inkscape.org/namespaces/inkscape"
   width="258.97208mm"
   height="110.82104mm"
   viewBox="0 0 258.97208 110.82104"
   version="1.1"
   id="svg8"
   inkscape:version="0.92.5 (2060ec1f9f, 2020-04-08)"
   sodipodi:docname="var.svg">
  <defs
     id="defs2">
    <inkscape:path-effect
       effect="bspline"
       id="path-effect992"
       is_visible="true"
       weight="33.333333"
       steps="2"
       helper_size="0"
       apply_no_weight="true"
       apply_with_weight="true"
       only_selected="false" />
    <inkscape:path-effect
       effect="bspline"
       id="path-effect968"
       is_visible="true"
       weight="33.333333"
       steps="2"
       helper_size="0"
       apply_no_weight="true"
       apply_with_weight="true"
       only_selected="false" />
    <inkscape:path-effect
       effect="bspline"
       id="path-effect12"
       is_visible="true"
       weight="33.333333"
       steps="2"
       helper_size="0"
       apply_no_weight="true"
       apply_with_weight="true"
       only_selected="false" />
    <inkscape:path-effect
       effect="bspline"
       id="path-effect12-3"
       is_visible="true"
       weight="33.333333"
       steps="2"
       helper_size="0"
       apply_no_weight="true"
       apply_with_weight="true"
       only_selected="false" />
    <inkscape:path-effect
       effect="bspline"
       id="path-effect12-7"
       is_visible="true"
       weight="33.333333"
       steps="2"
       helper_size="0"
       apply_no_weight="true"
       apply_with_weight="true"
       only_selected="false" />
    <inkscape:path-effect
       effect="bspline"
       id="path-effect12-7-3"
       is_visible="true"
       weight="33.333333"
       steps="2"
       helper_size="0"
       apply_no_weight="true"
       apply_with_weight="true"
       only_selected="false" />
    <inkscape:path-effect
       effect="bspline"
       id="path-effect12-5"
       is_visible="true"
       weight="33.333333"
       steps="2"
       helper_size="0"
       apply_no_weight="true"
       apply_with_weight="true"
       only_selected="false" />
    <inkscape:path-effect
       effect="bspline"
       id="path-effect12-7-9"
       is_visible="true"
       weight="33.333333"
       steps="2"
       helper_size="0"
       apply_no_weight="true"
       apply_with_weight="true"
       only_selected="false" />
    <inkscape:path-effect
       effect="bspline"
       id="path-effect12-1"
       is_visible="true"
       weight="33.333333"
       steps="2"
       helper_size="0"
       apply_no_weight="true"
       apply_with_weight="true"
       only_selected="false" />
    <inkscape:path-effect
       effect="bspline"
       id="path-effect12-1-0"
       is_visible="true"
       weight="33.333333"
       steps="2"
       helper_size="0"
       apply_no_weight="true"
       apply_with_weight="true"
       only_selected="false" />
    <inkscape:path-effect
       effect="bspline"
       id="path-effect12-1-0-3"
       is_visible="true"
       weight="33.333333"
       steps="2"
       helper_size="0"
       apply_no_weight="true"
       apply_with_weight="true"
       only_selected="false" />
    <inkscape:path-effect
       effect="bspline"
       id="path-effect12-1-6"
       is_visible="true"
       weight="33.333333"
       steps="2"
       helper_size="0"
       apply_no_weight="true"
       apply_with_weight="true"
       only_selected="false" />
    <inkscape:path-effect
       effect="bspline"
       id="path-effect968-2"
       is_visible="true"
       weight="33.333333"
       steps="2"
       helper_size="0"
       apply_no_weight="true"
       apply_with_weight="true"
       only_selected="false" />
  </defs>
  <sodipodi:namedview
     id="base"
     pagecolor="#ffffff"
     bordercolor="#666666"
     borderopacity="1.0"
     inkscape:pageopacity="0.0"
     inkscape:pageshadow="2"
     inkscape:zoom="0.7"
     inkscape:cx="311.80127"
     inkscape:cy="209.24738"
     inkscape:document-units="mm"
     inkscape:current-layer="layer1"
     showgrid="false"
     inkscape:snap-nodes="false"
     showguides="false"
     inkscape:window-width="1366"
     inkscape:window-height="703"
     inkscape:window-x="0"
     inkscape:window-y="0"
     inkscape:window-maximized="1" />
  <metadata
     id="metadata5">
    <rdf:RDF>
      <cc:Work
         rdf:about="">
        <dc:format>image/svg+xml</dc:format>
        <dc:type
           rdf:resource="http://purl.org/dc/dcmitype/StillImage" />
        <dc:title></dc:title>
      </cc:Work>
    </rdf:RDF>
  </metadata>
  <g
     inkscape:label="Layer 1"
     inkscape:groupmode="layer"
     id="layer1"
     transform="translate(24.32824,-50.312406)">
    <path
       style="fill:none;stroke:#000000;stroke-width:1;stroke-linecap:butt;stroke-linejoin:miter;stroke-miterlimit:4;stroke-dasharray:none;stroke-opacity:1"
       d="m -117.17262,39.976189 c 0,0 0,43.467263 0,43.467263 0,0 0,6.803571 0,6.803571 0,0 3.02381,3.401785 3.02381,3.401785 0,0 2.26786,1.511905 2.26786,1.511905 0,0 28.726188,0 28.726188,0 0,0 0,-55.411308 0,-55.411308 0,0 -34.017858,0.226784 -34.017858,0.226784 z"
       id="path10"
       inkscape:connector-curvature="0"
       inkscape:path-effect="#path-effect12"
       inkscape:original-d="m -117.17262,39.976189 v 43.467263 6.803571 l 3.02381,3.401785 2.26786,1.511905 h 28.726188 V 39.749405 Z"
       sodipodi:nodetypes="cccccccc"
       transform="translate(222.48253,11.490477)" />
    <path
       transform="translate(189.44742,64.900187)"
       style="fill:none;stroke:#000000;stroke-width:1;stroke-linecap:butt;stroke-linejoin:miter;stroke-miterlimit:4;stroke-dasharray:none;stroke-opacity:1"
       d="m -117.17262,39.976189 c 0,0 0,55.184524 0,55.184524 0,0 34.017858,0 34.017858,0 0,0 0.377976,-47.740065 0.377976,-47.740065 0,0 -2.645833,-4.269457 -2.645833,-4.269457 0,0 -2.868101,-3.367547 -2.868101,-3.367547 0,0 -28.8819,0.192545 -28.8819,0.192545 z"
       id="path10-5"
       inkscape:connector-curvature="0"
       inkscape:path-effect="#path-effect12-7"
       inkscape:original-d="m -117.17262,39.976189 v 55.184524 h 34.017858 l 0.377976,-47.740065 -2.645833,-4.269457 -2.868101,-3.367547 z"
       sodipodi:nodetypes="ccccccc" />
    <g
       id="g954" />
    <path
       style="fill:none;stroke:#000000;stroke-width:1;stroke-linecap:butt;stroke-linejoin:miter;stroke-miterlimit:4;stroke-dasharray:none;stroke-opacity:1"
       d="m -149.67857,141.27381 c 0,0 0,-48.002977 0,-48.002977 0,0 0,-1.984375 0,-1.984375 0,0 0.75595,-1.417411 0.75595,-1.417411 0,0 1.03944,-0.755952 1.03944,-0.755952 0,0 0.75595,-1.606398 0.75595,-1.606398 0,0 -0.75595,-1.322917 -0.75595,-1.322917 0,0 -1.32292,-1.133929 -1.32292,-1.133929 0,0 -0.47247,-1.228422 -0.47247,-1.228422 0,0 0,-51.78274 0,-51.78274 0,0 33.2619,1e-6 33.2619,1e-6 0,0 0,55.5625 0,55.5625 0,0 -66.52381,0 -66.52381,0 0,0 0,53.975 0,53.975 0,0 33.26191,-0.30238 33.26191,-0.30238 z"
       id="path966"
       inkscape:connector-curvature="0"
       inkscape:path-effect="#path-effect968"
       inkscape:original-d="M -149.67857,141.27381 V 93.270833 91.286458 l 0.75595,-1.417411 1.03944,-0.755952 0.75595,-1.606398 -0.75595,-1.322917 -1.32292,-1.133929 -0.47247,-1.228422 v -51.78274 l 33.2619,1e-6 v 55.5625 h -66.52381 v 53.975 z"
       transform="translate(350.56051,18.773717)"
       sodipodi:nodetypes="ccccccccccccccc" />
    <path
       style="fill:none;stroke:#000000;stroke-width:1;stroke-linecap:butt;stroke-linejoin:miter;stroke-miterlimit:4;stroke-dasharray:none;stroke-opacity:1"
       d="m 200.20726,96.592107 c -0.42307,9.220793 -0.95783,9.933803 -1.49237,10.646523 0,0 -30.06782,0.53454 -30.06782,0.53454 0,0 0,52.6521 0,52.6521 0,0 32.07235,0 32.07235,0 0,0 0,-47.84124 0,-47.84124 0.26727,-0.57909 0.53469,-1.15849 0.98022,-1.64843 0.44552,-0.48993 1.06884,-0.89064 1.69247,-1.29154 0,0 31.27054,0 31.27054,0 0,0 0,-57.730217 0,-57.730217 0,0 -33.4087,0 -33.4087,0 -0.31181,17.728876 -0.62362,35.457472 -1.04669,44.678264 z"
       id="path990"
       inkscape:connector-curvature="0"
       inkscape:path-effect="#path-effect992"
       inkscape:original-d="m 200.31851,105.10047 c -0.53428,0.71246 -1.60362,2.13816 -1.60362,2.13816 l -30.06782,0.53454 v 52.6521 h 32.07235 v -47.84124 c 0,0 0.5348,-1.15844 0.80181,-1.73726 0.62389,-0.40117 1.87088,-1.20271 1.87088,-1.20271 h 31.27054 V 51.913843 h -33.4087 c 0,0 -0.62337,35.457476 -0.93544,53.186627 z"
       transform="translate(-192.47531,0.20817331)"
       sodipodi:nodetypes="scccccaccccs" />
  </g>
</svg>
